<svg width="28" height="30" viewBox="0 0 28 30" fill="none" xmlns="http://www.w3.org/2000/svg">
<path d="M14 0C12.6566 0 11.5652 1.22248 11.5652 2.72727C11.5652 3.99503 12.3451 5.05238 13.3913 5.35866V7.5H7.93207C5.23573 7.5 3.04348 9.95561 3.04348 12.9759V15.6818H0V23.8636H3.04348V30H24.9565V23.8636H28V15.6818H24.9565V12.9759C24.9565 9.95561 22.7643 7.5 20.0679 7.5H14.6087V5.35866C15.6573 5.05238 16.4348 3.99503 16.4348 2.72727C16.4348 1.22248 15.3434 0 14 0ZM14 1.36364C14.6705 1.36364 15.2174 1.97621 15.2174 2.72727C15.2174 3.47834 14.6705 4.09091 14 4.09091C13.3295 4.09091 12.7826 3.47834 12.7826 2.72727C12.7826 1.97621 13.3295 1.36364 14 1.36364ZM7.93207 8.86364H20.0679C22.0914 8.86364 23.7391 10.7093 23.7391 12.9759V28.6364H20.087V23.1818H7.91304V28.6364H4.26087V12.9759C4.26087 10.7093 5.90863 8.86364 7.93207 8.86364ZM10.0435 12.9545C8.53363 12.9545 7.30435 14.3315 7.30435 16.0227C7.30435 17.714 8.53363 19.0909 10.0435 19.0909C11.5533 19.0909 12.7826 17.714 12.7826 16.0227C12.7826 14.3315 11.5533 12.9545 10.0435 12.9545ZM17.9565 12.9545C16.4467 12.9545 15.2174 14.3315 15.2174 16.0227C15.2174 17.714 16.4467 19.0909 17.9565 19.0909C19.4664 19.0909 20.6957 17.714 20.6957 16.0227C20.6957 14.3315 19.4664 12.9545 17.9565 12.9545ZM10.0435 14.3182C10.8828 14.3182 11.5652 15.0826 11.5652 16.0227C11.5652 16.9629 10.8828 17.7273 10.0435 17.7273C9.20414 17.7273 8.52174 16.9629 8.52174 16.0227C8.52174 15.0826 9.20414 14.3182 10.0435 14.3182ZM17.9565 14.3182C18.7959 14.3182 19.4783 15.0826 19.4783 16.0227C19.4783 16.9629 18.7959 17.7273 17.9565 17.7273C17.1172 17.7273 16.4348 16.9629 16.4348 16.0227C16.4348 15.0826 17.1172 14.3182 17.9565 14.3182ZM1.21739 17.0455H3.04348V22.5H1.21739V17.0455ZM24.9565 17.0455H26.7826V22.5H24.9565V17.0455ZM9.13043 24.5455H11.5652V28.6364H9.13043V24.5455ZM12.7826 24.5455H15.2174V28.6364H12.7826V24.5455ZM16.4348 24.5455H18.8696V28.6364H16.4348V24.5455Z" fill="#8175D8"/>
</svg>
